<svg width="18" height="18" viewBox="0 0 18 18" fill="none" xmlns="http://www.w3.org/2000/svg">
<path d="M9 1.5C8.00544 2.49456 7.4467 3.84348 7.4467 5.25C7.4467 6.65652 8.00544 8.00544 9 9C9.99457 9.99456 11.3435 10.5533 12.75 10.5533C14.1565 10.5533 15.5054 9.99456 16.5 9C16.5 10.4834 16.0601 11.9334 15.236 13.1668C14.4119 14.4001 13.2406 15.3614 11.8701 15.9291C10.4997 16.4968 8.99168 16.6453 7.53683 16.3559C6.08197 16.0665 4.7456 15.3522 3.6967 14.3033C2.64781 13.2544 1.9335 11.918 1.64411 10.4632C1.35472 9.00832 1.50325 7.50032 2.07091 6.12987C2.63856 4.75943 3.59986 3.58809 4.83323 2.76398C6.0666 1.93987 7.51664 1.5 9 1.5Z" stroke="#FEF9C2" stroke-width="2" stroke-linecap="round" stroke-linejoin="round"/>
</svg>
