<?xml version="1.0" encoding="UTF-8"?>
<!-- Generated by Pixelmator Pro 3.5.6 -->
<svg width="512" height="136" viewBox="0 0 512 136" xmlns="http://www.w3.org/2000/svg">
    <path id="Shape" fill="#ffffff" fill-rule="evenodd" stroke="none" d="M 123.867821 31.690903 C 145.287262 31.690903 145.888397 31.707214 145.809814 31.987419 C 145.764084 32.150497 145.460434 32.970131 145.135025 33.80883 C 144.809631 34.64753 143.645279 37.544846 142.547607 40.247314 C 141.449936 42.949791 140.190231 46.075844 139.748276 47.194107 C 139.30632 48.312363 138.124817 51.24781 137.122726 53.717308 C 136.120636 56.186806 134.938828 59.122246 134.49649 60.240509 C 134.054169 61.358772 132.882202 64.274788 131.892136 66.720543 C 130.902069 69.166298 128.910782 74.103043 127.467064 77.691086 C 126.023346 81.279129 123.660477 87.150299 122.216255 90.738144 C 120.772026 94.325974 118.407822 100.196617 116.962448 103.784012 C 115.517082 107.371399 113.185402 113.163559 111.780945 116.655479 C 110.376488 120.1474 108.071014 125.885231 106.657677 129.406219 L 104.08799 135.808014 L 93.098473 135.851608 C 82.10894 135.895218 82.10894 135.895218 82.209061 135.512741 C 82.264114 135.302383 83.258911 132.783798 84.419716 129.915894 C 85.580521 127.047981 87.562027 122.130157 88.823059 118.987411 C 90.084106 115.84465 91.999626 111.100319 93.079765 108.444443 C 94.15992 105.788567 95.24147 103.069336 95.483223 102.401711 C 95.922791 101.187836 95.922791 101.187836 95.242569 99.606049 C 94.868446 98.736069 94.130188 97.053085 93.601974 95.866104 C 93.073769 94.679108 92.254158 92.849228 91.780632 91.799683 C 91.307098 90.750153 90.632378 89.205231 90.28125 88.366531 C 89.930122 87.527832 89.322678 86.155426 88.931366 85.316727 C 88.540054 84.478027 87.930244 83.105614 87.576218 82.266907 C 87.222191 81.428207 86.547844 79.903305 86.077682 78.878235 C 85.607506 77.853165 84.789246 76.02327 84.2593 74.811821 C 83.729362 73.600372 82.898338 71.694244 82.41259 70.575974 C 81.926834 69.45771 81.066956 67.513458 80.501732 66.255409 C 79.936523 64.997368 79.033707 62.976868 78.495468 61.765419 C 77.957237 60.553963 77.073509 58.55175 76.531631 57.316055 C 75.989761 56.08036 74.972977 53.773857 74.272133 52.190491 C 73.571281 50.607124 72.572281 48.3396 72.052124 47.151558 C 71.531975 45.963509 70.722687 44.152763 70.253716 43.127693 C 69.784744 42.102615 69.037636 40.425217 68.593475 39.400146 C 68.149315 38.375076 67.278641 36.392693 66.658646 34.994865 C 66.038643 33.597038 65.487328 32.281807 65.433495 32.072136 C 65.335617 31.690903 65.335617 31.690903 76.608917 31.690903 C 87.882217 31.690903 87.882217 31.690903 88.287582 32.580437 C 88.510521 33.069679 89.121315 34.499275 89.64489 35.757317 C 90.168472 37.015366 90.990768 38.959625 91.472221 40.077881 C 91.953674 41.196144 92.903648 43.407265 93.583267 44.991463 C 94.262886 46.575668 95.259087 48.901154 95.797058 50.159195 C 96.335014 51.417244 97.21109 53.475868 97.743881 54.73391 C 98.276657 55.991959 99.105286 57.936211 99.585274 59.054474 C 100.065254 60.172737 100.9534 62.249237 101.558945 63.668907 C 102.164474 65.088585 103.226364 67.566559 103.918694 69.175507 C 104.611015 70.784462 105.45462 72.768028 105.79335 73.583427 C 106.132088 74.398827 106.46817 75.065979 106.540192 75.065979 C 106.612221 75.065979 107.216141 73.694199 107.882225 72.017578 C 108.548332 70.340958 110.126541 66.35714 111.389366 63.164658 C 112.652199 59.972168 114.328407 55.740097 115.114265 53.76004 C 115.900131 51.779984 117.190811 48.520508 117.982437 46.516739 C 118.774063 44.512978 120.074982 41.21521 120.873367 39.188354 C 121.671745 37.161499 122.672119 34.645409 123.096405 33.597038 L 123.867821 31.690903 Z M 149.326828 13.869293 C 164.558945 8.792229 169.190842 7.266052 169.447098 7.202255 C 169.91304 7.086258 169.91304 7.086258 169.91304 19.388588 L 169.91304 31.690903 L 180.831146 31.690903 C 191.749252 31.690903 191.749252 31.690903 191.851501 32.411003 C 191.907715 32.807053 191.931458 37.133972 191.904251 42.026375 L 191.854736 50.921646 L 180.883881 50.965248 L 169.91304 51.008835 L 169.913727 60.11467 C 169.914261 67.398407 169.965286 69.534203 170.168671 70.788185 C 170.308502 71.650414 170.649048 73.060951 170.92543 73.922714 C 171.201797 74.784485 171.731354 76.116386 172.102219 76.882515 C 172.473083 77.648636 173.174103 78.868561 173.66008 79.59346 C 174.146011 80.318344 175.198196 81.589127 175.99823 82.417404 C 176.798279 83.245682 178.050125 84.370148 178.780151 84.916199 C 179.510178 85.462257 180.577621 86.171783 181.152222 86.492935 C 181.726852 86.814072 182.917679 87.355011 183.798492 87.695007 C 184.679306 88.035004 185.967041 88.458214 186.66011 88.635475 C 187.353195 88.812729 188.776352 89.044556 189.822723 89.150635 C 191.72522 89.343521 191.72522 89.343521 191.831131 90.464645 C 191.889374 91.081268 191.936523 95.550522 191.935928 100.396332 C 191.935303 105.242142 191.88884 109.378448 191.832657 109.58812 C 191.740997 109.930161 191.63237 109.966919 190.776016 109.945724 C 190.251038 109.932724 189.1353 109.86158 188.296616 109.787605 C 187.457932 109.713638 186.009262 109.526138 185.077377 109.370956 C 184.145493 109.215775 182.473923 108.860405 181.362778 108.581245 C 180.251633 108.302086 178.574234 107.806442 177.635239 107.47982 C 176.696228 107.153198 175.317993 106.611832 174.572479 106.276787 C 173.826965 105.941742 172.603928 105.354248 171.854584 104.971245 C 171.10527 104.588242 169.618484 103.694435 168.550629 102.985016 C 167.482773 102.275604 165.99913 101.202576 165.253616 100.60051 C 164.508102 99.998444 163.208267 98.855774 162.365082 98.061234 C 161.521912 97.266701 160.28627 95.980278 159.619263 95.202522 C 158.95224 94.424759 157.964737 93.202324 157.424789 92.485992 C 156.884842 91.769661 155.861145 90.206635 155.149918 89.012596 C 154.438705 87.818565 153.389938 85.791115 152.819351 84.507156 C 152.248749 83.22319 151.521637 81.314087 151.203568 80.264694 C 150.885468 79.215302 150.429489 77.429642 150.190247 76.296562 C 149.951004 75.163483 149.633789 73.069717 149.485321 71.643745 C 149.247482 69.359344 149.222015 65.770493 149.271103 41.46019 L 149.326828 13.869293 Z M 314.355408 109.270515 C 312.413513 109.262222 310.172211 109.149429 309.105774 109.00634 C 308.082245 108.869003 306.095184 108.467575 304.690094 108.114273 C 303.285004 107.760971 301.339478 107.153458 300.36673 106.764244 C 299.393951 106.375031 297.759369 105.643532 296.734283 105.138687 C 295.709198 104.633842 294.025299 103.659439 292.992218 102.973358 C 291.959167 102.287277 290.548615 101.280098 289.857697 100.735176 C 289.166779 100.190254 287.756958 98.899902 286.724792 97.867737 C 285.692596 96.835556 284.428253 95.457336 283.9151 94.805023 C 283.401947 94.152695 282.491821 92.894653 281.892639 92.009354 C 281.293396 91.124069 280.333862 89.522919 279.760315 88.451248 C 279.186768 87.379578 278.335022 85.47345 277.867554 84.215401 C 277.400116 82.957352 276.829437 81.278046 276.599396 80.483597 C 276.369354 79.689163 276.018799 78.088013 275.820374 76.925491 C 275.604095 75.658325 275.417236 73.609901 275.353821 71.810692 C 275.289124 69.975975 275.326813 67.861061 275.450745 66.369118 C 275.562195 65.026878 275.840942 63.024437 276.070129 61.919258 C 276.299316 60.814072 276.876068 58.764313 277.351868 57.364227 C 277.827637 55.964149 278.546722 54.132423 278.94986 53.293724 C 279.352997 52.455025 280.14856 50.985924 280.717773 50.029037 C 281.286987 49.072159 282.311859 47.547256 282.9953 46.640366 C 283.678772 45.733475 284.762634 44.419624 285.4039 43.720711 C 286.045135 43.021797 287.182312 41.87812 287.930908 41.179199 C 288.679504 40.480286 290.013458 39.365784 290.895233 38.702515 C 291.777008 38.039253 293.299011 37.015518 294.277496 36.427536 C 295.255981 35.839561 296.666504 35.076698 297.412018 34.732285 C 298.157532 34.387878 299.662598 33.752151 300.756653 33.319565 C 301.850677 32.886986 303.642426 32.300468 304.738342 32.016205 C 305.834229 31.731941 307.722076 31.352196 308.933533 31.172325 C 310.144989 30.992455 311.937469 30.844948 312.916809 30.844513 C 314.514465 30.843819 314.719238 30.878571 314.909119 31.182602 C 315.079712 31.455765 315.30423 31.521469 316.067047 31.521469 C 316.887665 31.521469 317.025787 31.47393 317.106964 31.163521 C 317.193542 30.83242 317.278168 30.813828 318.234772 30.915703 C 318.803589 30.976273 319.993317 31.144859 320.878601 31.290344 C 321.763885 31.435814 323.333893 31.771622 324.367462 32.036568 C 325.401062 32.301529 327.345306 32.946327 328.688049 33.469467 C 330.030762 33.992607 331.739349 34.745949 332.484833 35.143578 C 333.230316 35.541191 334.537964 36.299355 335.390717 36.828369 C 336.243439 37.357384 337.654022 38.339943 338.525269 39.011833 C 339.396484 39.683731 340.861725 40.960907 341.781219 41.850006 C 342.700745 42.739113 343.99707 44.114647 344.661926 44.906746 C 345.326752 45.698845 346.489807 47.261879 347.246429 48.380142 C 348.003052 49.498398 349.040009 51.252045 349.550781 52.277122 C 350.061554 53.302193 350.719818 54.750854 351.013611 55.496361 C 351.307373 56.241867 351.820526 57.766777 352.153931 58.88504 C 352.487335 60.003304 352.943054 61.844757 353.166687 62.977173 C 353.390259 64.109581 353.662079 65.972145 353.770691 67.116211 C 353.887177 68.3433 353.923828 70.139305 353.860046 71.495773 C 353.800568 72.760468 353.63623 74.557671 353.494843 75.489563 C 353.353455 76.421448 353.011932 78.06459 352.735931 79.140999 C 352.459961 80.217407 351.922333 82.009171 351.541168 83.122696 C 351.160034 84.236221 350.325806 86.214722 349.687317 87.519363 C 349.048859 88.824005 347.92868 90.782532 347.197998 91.871643 C 346.467346 92.960754 345.263153 94.553436 344.522034 95.41095 C 343.780945 96.268463 342.484894 97.638733 341.641937 98.456001 C 340.799042 99.27327 339.575653 100.380508 338.923309 100.916519 C 338.270966 101.45253 336.936676 102.420853 335.958221 103.068344 C 334.979767 103.715828 333.531097 104.571068 332.738983 104.968872 C 331.946869 105.366684 330.574493 105.998489 329.689178 106.372902 C 328.803894 106.747307 327.469604 107.244507 326.724091 107.477798 C 325.978577 107.711082 324.455902 108.106247 323.340393 108.355934 C 322.224884 108.605621 320.509369 108.916809 319.528137 109.047455 C 318.458252 109.189911 316.387634 109.279198 314.355408 109.270515 Z M 360.864258 108.613876 L 360.949707 30.928452 L 371.285187 30.928452 L 381.620636 30.928452 L 381.667755 33.359192 C 381.710876 35.582558 381.739746 35.779678 382.006622 35.669739 C 382.167084 35.603638 382.905273 35.324417 383.646973 35.04924 C 384.388702 34.774078 385.910522 34.325531 387.028717 34.05246 C 388.146942 33.779411 389.903687 33.430946 390.932556 33.278114 C 392.177185 33.093246 393.824066 33.005417 395.853088 33.015694 C 397.740021 33.025246 399.581268 33.135727 400.681946 33.305443 C 401.660431 33.456299 403.206512 33.766563 404.117676 33.994926 C 405.028778 34.223282 406.495728 34.667961 407.377502 34.983116 C 408.259247 35.298271 409.849823 35.983589 410.912201 36.506058 C 411.974487 37.028526 413.59549 37.958344 414.514435 38.572327 C 415.433319 39.18631 416.680756 40.109001 417.286469 40.622765 C 417.892181 41.13652 418.818207 41.948425 419.344299 42.426994 C 419.870331 42.905571 421.972137 44.974525 424.014923 47.024673 C 426.057739 49.074814 429.49176 52.567917 431.646118 54.787109 C 433.800446 57.006302 435.625305 58.824768 435.701294 58.82814 C 435.777313 58.83152 436.122162 58.045128 436.467712 57.080605 C 436.813263 56.116081 437.575714 54.380066 438.162048 53.222801 C 438.748413 52.065521 439.804749 50.235641 440.509491 49.156387 C 441.214264 48.077126 442.41806 46.415558 443.184753 45.464005 C 443.951385 44.512451 445.204681 43.112244 445.969818 42.352448 C 446.734955 41.592651 447.908844 40.521378 448.57843 39.97184 C 449.248047 39.422295 450.620422 38.416069 451.628235 37.735756 C 452.636047 37.055458 454.528046 35.965721 455.832672 35.314125 C 457.137299 34.662521 459.294312 33.76696 460.626038 33.323952 C 461.957764 32.880959 463.940155 32.335495 465.031342 32.111824 C 466.122528 31.888145 467.804901 31.625694 468.769958 31.528587 C 469.735016 31.43148 471.690247 31.352036 473.114929 31.352036 C 474.539612 31.352036 476.494843 31.43148 477.4599 31.528587 C 478.424957 31.625694 480.110626 31.888817 481.20578 32.113319 C 482.300934 32.337814 484.283295 32.885132 485.611053 33.32959 C 486.998962 33.794174 489.130554 34.694801 490.625732 35.448303 C 492.05603 36.169144 493.968781 37.257965 494.876251 37.867897 C 495.783691 38.477829 497.248322 39.579643 498.130981 40.316376 C 499.013641 41.053108 500.319275 42.276131 501.03244 43.034195 C 501.745575 43.792252 502.806854 45.000221 503.390808 45.718582 C 503.974823 46.436928 505.010925 47.858635 505.693298 48.877914 C 506.375671 49.897209 507.466583 51.821396 508.117493 53.1539 C 508.768402 54.486397 509.636414 56.587875 510.046417 57.823853 C 510.45639 59.059822 510.98175 61.024139 511.213837 62.189003 C 511.445892 63.353859 511.717468 65.221863 511.817261 66.340126 C 511.917053 67.458397 511.998993 71.060753 511.999329 74.345367 L 512 80.317398 L 484.618988 80.360268 L 457.237946 80.403137 L 458.045197 81.504456 C 458.489166 82.110184 459.330902 83.07692 459.91568 83.652756 C 460.500427 84.228592 461.536469 85.09333 462.218018 85.574387 C 462.899597 86.05545 463.974823 86.711365 464.607422 87.031975 C 465.240021 87.352592 466.436798 87.842461 467.266937 88.120575 C 468.097076 88.398697 469.523712 88.738907 470.437286 88.876617 C 471.350861 89.014313 472.718964 89.127441 473.477509 89.127991 C 474.236053 89.128532 475.582428 88.97966 476.469452 88.79715 C 477.356445 88.614639 478.556641 88.305481 479.136536 88.110123 C 479.716431 87.914764 480.809937 87.445999 481.566528 87.06842 C 482.32309 86.690857 483.36145 86.072647 483.873993 85.694641 C 484.386505 85.31662 485.290497 84.586861 485.882813 84.072937 C 486.653137 83.404587 487.024017 83.183289 487.185394 83.295738 C 487.309448 83.382202 490.484589 86.37529 494.241211 89.947037 C 497.997894 93.518784 501.147766 96.55378 501.240936 96.691467 C 501.373352 96.887108 501.095703 97.246506 499.970184 98.33638 C 499.17807 99.103394 497.819336 100.279343 496.950745 100.949593 C 496.082123 101.61985 494.541107 102.668533 493.526245 103.280014 C 492.511353 103.891479 490.820313 104.804932 489.768341 105.309898 C 488.71637 105.814857 486.915894 106.54158 485.767242 106.92482 C 484.618591 107.308075 482.86499 107.80439 481.87027 108.027748 C 480.875549 108.251114 479.299255 108.550995 478.367371 108.69416 C 477.435486 108.837326 475.453125 108.987503 473.962097 109.027893 C 472.471069 109.068283 470.564941 109.030029 469.726257 108.942886 C 468.887573 108.855743 467.324524 108.630272 466.252869 108.441849 C 465.181183 108.253418 463.48877 107.869705 462.491943 107.589142 C 461.495056 107.308578 460.008301 106.811989 459.187958 106.485611 C 458.367615 106.159225 456.857758 105.478348 455.832672 104.972549 C 454.807587 104.466743 453.168304 103.529419 452.18985 102.889618 C 451.211395 102.249802 449.838959 101.263916 449.140045 100.698746 C 448.441132 100.133568 447.239502 99.109993 446.469757 98.424118 C 445.699982 97.738251 436.054993 88.187294 425.036377 77.199753 C 414.017761 66.212219 404.58316 56.890556 404.070648 56.48494 C 403.558105 56.07933 402.527863 55.448395 401.78125 55.08287 C 401.034637 54.717346 399.776581 54.250389 398.985596 54.045181 C 398.07663 53.809372 396.986359 53.664825 396.022522 53.652336 C 395.183838 53.641479 393.939178 53.728622 393.256683 53.845993 C 392.574158 53.963364 391.446808 54.280312 390.751465 54.550323 C 390.056061 54.820335 388.956512 55.36187 388.307953 55.753731 C 387.659424 56.145592 386.610504 56.972313 385.97702 57.590904 C 385.343567 58.209496 384.495026 59.201904 384.091431 59.796272 C 383.687805 60.39064 383.106995 61.419952 382.80069 62.083633 C 382.494415 62.747307 382.12265 63.758797 381.974579 64.331383 C 381.735535 65.255859 381.705353 67.763657 381.705353 86.725151 C 381.705353 98.469147 381.659088 108.198463 381.602539 108.345871 C 381.510284 108.586197 380.434082 108.613876 371.181976 108.613876 L 360.864258 108.613876 Z M 0.055604 46.346931 L 70.709518 46.346931 L 70.753227 56.502136 C 70.787704 64.514091 70.751953 66.685898 70.583794 66.792648 C 70.466568 66.867065 59.4104 66.929123 46.014538 66.93055 L 21.658421 66.933151 L 21.658421 87.67067 C 21.658421 106.424271 21.632782 108.41803 21.390411 108.511032 C 21.243008 108.567596 16.399042 108.613876 10.626044 108.613876 C 2.384855 108.613876 0.112386 108.568375 0.04917 108.402084 C 0.004885 108.285599 -0.011782 94.275536 0.012128 77.268616 L 0.055604 46.346931 Z M 194.908981 92.771812 C 198.34523 87.650673 200.460938 84.506165 201.827499 82.480057 C 203.194031 80.453949 205.417023 77.156509 206.767456 75.152405 C 208.117874 73.148315 210.404907 69.755165 211.849716 67.612091 C 213.294525 65.469017 215.658524 61.962006 217.103058 59.818741 C 218.547577 57.675468 220.987396 54.053795 222.524857 51.770576 C 224.062347 49.487366 226.578766 45.751572 228.116928 43.468826 C 229.65509 41.186081 232.172729 37.451088 233.711655 35.168861 C 235.25058 32.88662 237.918198 28.925507 239.639648 26.366379 C 241.361115 23.807251 242.769608 21.67099 242.769608 21.619133 C 242.769608 21.567299 232.419312 21.523705 219.768951 21.522278 C 207.118607 21.520851 196.67009 21.457367 196.550049 21.381203 C 196.391266 21.280464 197.169601 20.107353 199.406113 17.076515 C 201.097 14.785103 203.623138 11.360367 205.019745 9.465988 C 206.416336 7.571625 208.409653 4.862503 209.44931 3.445755 L 211.339615 0.869812 L 241.880081 0.861893 L 272.420532 0.853943 L 272.420532 8.794159 C 272.420532 16.734367 272.420532 16.734367 271.315247 18.364494 C 270.707367 19.261063 269.332458 21.290314 268.259918 22.873924 C 267.187408 24.457527 265.089783 27.544876 263.598572 29.734673 C 262.107391 31.924477 258.327118 37.473 255.197983 42.064735 C 252.068863 46.656471 248.361679 52.10173 246.959778 54.165321 C 245.557892 56.228897 243.170578 59.736183 241.654648 61.959274 C 240.138702 64.182365 237.700607 67.767082 236.236633 69.925316 C 234.77269 72.083549 232.333618 75.667068 230.816498 77.888702 C 229.299362 80.110344 227.193741 83.210014 226.137329 84.776871 C 225.080933 86.343719 224.191177 87.697075 224.16011 87.784317 C 224.125198 87.882408 233.684677 87.942947 249.208084 87.942947 C 263.015533 87.942947 274.28714 88.006615 274.256073 88.084427 C 274.225006 88.162231 272.487762 90.544899 270.395538 93.379227 C 268.303284 96.213562 265.63028 99.828735 264.455536 101.412933 C 263.280762 102.997147 261.637787 105.222183 260.804474 106.357468 C 259.971191 107.492752 259.136902 108.463844 258.950531 108.515442 C 258.76416 108.567032 244.378311 108.610291 226.981995 108.611565 C 197.563461 108.613716 195.332397 108.593948 195.067184 108.328751 C 194.806488 108.068039 194.787491 107.389717 194.845535 100.407715 L 194.908981 92.771812 Z M 409.83139 108.613876 L 409.83139 80.447311 L 414.435333 84.915222 C 416.96756 87.372574 421.6185 91.928467 424.770813 95.039436 L 430.502319 100.69574 L 430.502319 104.654808 L 430.502319 108.613876 L 420.16684 108.613876 L 409.83139 108.613876 Z M 315.033142 88.550354 C 317.305634 88.493759 318.004425 88.410545 319.353699 88.035812 C 320.238983 87.789948 321.725769 87.223488 322.657654 86.777008 C 323.589539 86.330536 324.969421 85.498337 325.72403 84.927681 C 326.478668 84.357025 327.580109 83.372726 328.171661 82.740356 C 328.763214 82.107986 329.691315 80.904068 330.2341 80.06498 C 330.776886 79.225891 331.52005 77.774826 331.885529 76.840393 C 332.250977 75.905945 332.687866 74.457291 332.856293 73.621147 C 333.0513 72.653137 333.162567 71.354294 333.162567 70.045639 C 333.162567 68.720024 333.052948 67.456871 332.853821 66.487534 C 332.68399 65.66095 332.247131 64.222206 331.883057 63.290321 C 331.518951 62.358437 330.752777 60.871651 330.180481 59.986359 C 329.578491 59.055153 328.523712 57.761261 327.677856 56.916435 C 326.873718 56.113274 325.605804 55.054672 324.860321 54.564003 C 324.114807 54.073334 322.95636 53.414917 322.28598 53.100853 C 321.615631 52.786797 320.366058 52.342209 319.509125 52.112877 C 318.652191 51.883545 317.185852 51.61171 316.25061 51.508804 C 315.016541 51.373009 314.079132 51.372414 312.83255 51.506622 C 311.887848 51.608337 310.397888 51.883446 309.521545 52.117973 C 308.645203 52.352501 307.232697 52.889572 306.38269 53.31147 C 305.532654 53.73336 304.182373 54.570007 303.382019 55.17067 C 302.581665 55.771339 301.493622 56.738426 300.964111 57.319763 C 300.434601 57.9011 299.617523 58.94223 299.148407 59.6334 C 298.679291 60.324562 297.995056 61.531036 297.62793 62.314461 C 297.260803 63.097878 296.757385 64.514763 296.509216 65.463081 C 296.105865 67.004417 296.057983 67.492813 296.057983 70.067673 C 296.057983 72.642532 296.105865 73.130936 296.509216 74.672272 C 296.757385 75.62059 297.268951 77.054825 297.645996 77.859451 C 298.023071 78.664085 298.673248 79.832443 299.09082 80.455795 C 299.508392 81.079163 300.311676 82.097015 300.875854 82.717712 C 301.440033 83.338409 302.468323 84.272743 303.160919 84.794006 C 303.853516 85.315262 304.97821 86.042694 305.660248 86.410522 C 306.342285 86.778336 307.41275 87.272118 308.039093 87.507813 C 308.665405 87.7435 309.885345 88.089691 310.750031 88.2771 C 312.060638 88.561172 312.773254 88.606628 315.033142 88.550354 Z M 473.114929 60.141289 C 481.501892 60.136169 488.501221 60.077812 488.669006 60.011612 C 488.945923 59.902328 488.92395 59.821526 488.430298 59.133987 C 488.131256 58.717506 487.269653 57.760406 486.515625 57.007103 C 485.761658 56.253807 484.555115 55.242096 483.834442 54.758842 C 483.11377 54.275597 482.004578 53.619453 481.369537 53.300758 C 480.734497 52.982063 479.646729 52.530724 478.952301 52.297783 C 478.257843 52.064842 477.031067 51.744995 476.226074 51.586998 C 475.104736 51.366913 474.233124 51.320724 472.498535 51.389496 C 470.988861 51.449348 469.782959 51.598595 468.879089 51.837463 C 468.133606 52.034477 466.837402 52.468063 465.998718 52.800972 C 465.160004 53.133896 463.711365 53.912239 462.77948 54.530632 C 461.847565 55.149033 460.507233 56.229263 459.800934 56.931145 C 459.094604 57.633034 458.265381 58.578094 457.95816 59.031288 C 457.511505 59.690254 457.44632 59.88485 457.632751 60.002945 C 457.761108 60.084229 464.720245 60.146416 473.114929 60.141289 Z M 0.055604 0.93866 L 70.794235 0.853149 L 70.794235 11.084534 C 70.794235 21.315918 70.794235 21.315918 70.41301 21.418076 C 70.203339 21.474274 54.363388 21.520119 35.213127 21.519966 C 16.062868 21.519806 0.29856 21.458794 0.181333 21.384377 C 0.013178 21.277618 -0.022581 19.10582 0.0119 11.093864 L 0.055604 0.93866 Z"/>
</svg>
